<?xml version="1.0" standalone="no"?>
<!DOCTYPE svg PUBLIC "-//W3C//DTD SVG 20010904//EN"
 "http://www.w3.org/TR/2001/REC-SVG-20010904/DTD/svg10.dtd">
<svg version="1.0" xmlns="http://www.w3.org/2000/svg"
 width="1502.000000pt" height="509.000000pt" viewBox="0 0 1502.000000 509.000000"
 preserveAspectRatio="xMidYMid meet">
<metadata>
Created by potrace 1.13, written by Peter Selinger 2001-2015
</metadata>
<g transform="translate(0.000000,509.000000) scale(0.100000,-0.100000)"
fill="#000000" stroke="none">
<path d="M6700 2545 l0 -2545 4160 0 4160 0 0 2545 0 2545 -4160 0 -4160 0 0
-2545z m4380 874 c65 -10 209 -54 222 -67 3 -4 -9 -83 -28 -177 -18 -93 -34
-172 -34 -174 0 -2 -17 12 -37 31 -87 77 -190 114 -299 105 -203 -16 -352
-198 -441 -537 -21 -77 -26 -121 -27 -230 -1 -153 12 -209 65 -273 53 -64 99
-82 209 -81 109 0 184 24 292 93 34 22 64 38 67 36 2 -2 -11 -81 -30 -174
l-33 -171 -63 -25 c-35 -14 -102 -32 -149 -40 -346 -60 -594 75 -669 365 -64
246 3 653 151 917 170 304 474 456 804 402z m-3135 -31 c-2 -7 -61 -303 -130
-658 -69 -355 -127 -655 -130 -667 l-5 -23 350 0 350 0 -6 -27 c-3 -16 -15
-80 -27 -143 l-22 -115 -513 -3 -512 -2 5 22 c3 13 73 374 156 803 83 429 153
790 156 803 5 22 7 22 169 22 126 0 162 -3 159 -12z m1219 -330 c54 -189 102
-349 106 -356 4 -9 89 116 231 342 l224 356 178 0 178 0 -44 -62 c-25 -35
-182 -260 -350 -501 l-305 -437 -63 -325 -63 -325 -164 0 c-151 0 -163 1 -158
18 3 9 32 155 66 324 l61 307 -156 488 c-86 268 -158 494 -160 501 -3 9 33 12
158 12 l163 0 98 -342z m3249 -435 c32 -428 61 -799 64 -825 l6 -48 -160 0
-160 0 -6 68 c-4 37 -7 108 -7 158 0 50 -3 112 -6 138 l-7 46 -217 0 -218 0
-88 -205 -89 -205 -168 0 c-93 0 -166 3 -164 8 5 7 677 1446 733 1570 l33 72
199 0 198 0 57 -777z m1023 183 c65 -327 120 -594 121 -592 3 2 233 1172 233
1182 0 2 65 4 145 4 l145 0 -5 -22 c-3 -13 -73 -374 -156 -803 -83 -429 -153
-790 -156 -802 -5 -23 -7 -23 -167 -23 l-162 0 -124 595 c-68 327 -125 593
-127 592 -1 -2 -50 -246 -108 -543 -58 -296 -110 -563 -116 -591 l-10 -53
-145 0 -144 0 5 23 c3 12 73 373 156 802 83 429 153 790 156 803 5 22 7 22
173 22 l167 0 119 -594z"/>
<path d="M11965 2770 c-77 -177 -141 -326 -143 -331 -2 -5 64 -9 153 -9 l156
0 -7 218 c-4 119 -10 268 -13 331 l-6 114 -140 -323z"/>
<path d="M4756 3473 c-3 -16 -33 -172 -67 -348 -33 -176 -62 -322 -64 -323 -2
-2 -8 13 -14 33 -44 159 -203 245 -380 204 -132 -30 -274 -151 -348 -294 -90
-175 -126 -324 -127 -530 0 -131 3 -158 23 -214 39 -110 100 -183 186 -223 74
-34 208 -33 285 3 67 32 123 76 173 136 20 25 37 41 37 37 0 -5 -7 -44 -15
-87 -8 -43 -15 -81 -15 -83 0 -2 72 -4 159 -4 156 0 159 0 164 23 3 12 78 389
166 837 89 448 163 825 166 838 l5 22 -164 0 -164 0 -6 -27z m-313 -707 c80
-34 117 -112 117 -245 -1 -166 -55 -324 -145 -420 -57 -61 -115 -86 -181 -78
-57 6 -91 31 -124 88 -23 40 -25 54 -24 164 0 138 17 214 69 320 72 147 186
215 288 171z"/>
<path d="M1818 3450 c-358 -61 -599 -341 -700 -814 -29 -139 -32 -409 -4 -506
29 -106 65 -171 130 -236 97 -97 229 -144 399 -144 86 0 233 29 303 59 l50 22
33 170 c19 93 32 172 30 174 -3 2 -33 -14 -67 -36 -108 -69 -183 -93 -292 -93
-80 -1 -102 3 -137 21 -86 47 -131 131 -140 269 -17 250 108 609 258 737 153
132 358 127 511 -11 37 -34 37 -34 43 -10 17 69 62 324 59 330 -7 10 -153 56
-218 67 -67 12 -188 13 -258 1z"/>
<path d="M2930 3035 c-178 -40 -338 -170 -424 -346 -71 -146 -103 -308 -93
-474 18 -284 182 -447 467 -462 194 -10 342 46 476 182 124 124 187 264 215
474 42 312 -66 531 -302 611 -83 29 -246 36 -339 15z m206 -264 c86 -39 120
-127 111 -286 -11 -181 -67 -327 -157 -408 -112 -101 -261 -83 -321 40 -21 43
-24 62 -24 168 1 138 17 212 70 322 74 150 204 217 321 164z"/>
<path d="M5693 3039 c-309 -52 -540 -352 -560 -729 -12 -243 73 -415 248 -498
126 -60 360 -78 539 -42 98 20 220 62 229 79 11 22 55 270 49 276 -3 3 -38
-10 -79 -30 -122 -57 -215 -78 -364 -79 -116 -1 -135 2 -180 22 -27 12 -58 30
-69 40 -29 26 -56 92 -56 139 0 79 -37 73 431 73 l418 0 6 33 c40 233 30 363
-37 489 -95 178 -325 269 -575 227z m202 -250 c51 -14 110 -73 124 -124 15
-54 14 -124 -2 -130 -7 -3 -126 -4 -264 -3 l-252 3 34 72 c74 151 214 222 360
182z"/>
</g>
</svg>
