<?xml version="1.0" standalone="no"?>
<!DOCTYPE svg PUBLIC "-//W3C//DTD SVG 20010904//EN"
 "http://www.w3.org/TR/2001/REC-SVG-20010904/DTD/svg10.dtd">
<svg version="1.0" xmlns="http://www.w3.org/2000/svg"
 width="360.000000pt" height="360.000000pt" viewBox="0 0 360.000000 360.000000"
 preserveAspectRatio="xMidYMid meet">
<metadata>
Created by potrace 1.11, written by Peter Selinger 2001-2013
</metadata>
<g transform="translate(0.000000,360.000000) scale(0.100000,-0.100000)"
fill="#000000" stroke="none">
<path d="M1900 1800 l0 -1800 850 0 850 0 0 1800 0 1800 -850 0 -850 0 0
-1800z m945 858 c-2 -7 -61 -305 -130 -663 -70 -357 -129 -658 -131 -667 -5
-17 16 -18 345 -18 193 0 351 -3 351 -7 -1 -5 -13 -69 -28 -143 l-28 -135
-513 -3 -513 -2 5 22 c3 13 74 374 157 803 83 429 154 790 157 803 5 22 7 22
169 22 126 0 162 -3 159 -12z"/>
<path d="M1025 2723 c-123 -17 -275 -83 -371 -161 -71 -59 -157 -168 -213
-272 -50 -94 -115 -286 -138 -410 -24 -133 -24 -390 1 -480 53 -193 174 -316
356 -361 32 -8 105 -14 175 -13 124 0 199 14 300 54 l51 21 33 170 c19 93 32
171 30 174 -2 2 -36 -16 -74 -41 -103 -65 -181 -89 -290 -89 -78 0 -96 3 -135
25 -51 29 -104 94 -120 148 -21 67 -23 220 -6 318 51 296 183 528 341 600 136
63 297 34 417 -74 l36 -33 11 53 c50 246 59 294 53 300 -13 13 -158 57 -222
67 -63 11 -174 12 -235 4z"/>
</g>
</svg>
